<?xml version="1.0" encoding="UTF-8" standalone="no"?>
<!DOCTYPE svg PUBLIC "-//W3C//DTD SVG 1.1//EN" "http://www.w3.org/Graphics/SVG/1.1/DTD/svg11.dtd">
<svg width="100%" height="100%" viewBox="0 0 32 32" version="1.1" xmlns="http://www.w3.org/2000/svg" xmlns:xlink="http://www.w3.org/1999/xlink" xml:space="preserve" xmlns:serif="http://www.serif.com/" style="fill-rule:evenodd;clip-rule:evenodd;stroke-linejoin:round;stroke-miterlimit:2;">
    <g transform="matrix(1.58941,0,0,1.58941,23.1044,-1.2653)">
        <g transform="matrix(24.0293,0,0,24.0293,-11.3062,17.0007)">
            <path d="M0.525,0.106C0.515,0.091 0.501,0.076 0.482,0.06C0.463,0.044 0.438,0.032 0.406,0.025L0.406,-0.04L0.339,0.01L0.311,0.01C0.273,0.01 0.238,0.004 0.205,-0.008C0.171,-0.019 0.143,-0.037 0.119,-0.06C0.094,-0.083 0.075,-0.113 0.061,-0.148C0.047,-0.183 0.04,-0.223 0.04,-0.27C0.04,-0.313 0.048,-0.351 0.063,-0.386C0.078,-0.42 0.099,-0.449 0.125,-0.474C0.151,-0.498 0.181,-0.517 0.216,-0.53C0.25,-0.543 0.286,-0.55 0.325,-0.55C0.37,-0.55 0.409,-0.544 0.443,-0.531C0.475,-0.518 0.501,-0.502 0.52,-0.483L0.429,-0.356L0.425,-0.36C0.427,-0.364 0.428,-0.369 0.429,-0.375C0.43,-0.381 0.43,-0.387 0.43,-0.392C0.43,-0.421 0.421,-0.446 0.404,-0.466C0.387,-0.485 0.363,-0.495 0.333,-0.495C0.292,-0.495 0.258,-0.478 0.233,-0.443C0.208,-0.408 0.195,-0.353 0.195,-0.278C0.195,-0.201 0.206,-0.143 0.229,-0.104C0.251,-0.065 0.285,-0.045 0.331,-0.045C0.344,-0.045 0.358,-0.047 0.371,-0.05C0.384,-0.053 0.396,-0.058 0.406,-0.063L0.406,-0.136C0.406,-0.157 0.403,-0.175 0.398,-0.19C0.392,-0.204 0.385,-0.217 0.376,-0.227C0.367,-0.237 0.356,-0.245 0.345,-0.252C0.333,-0.258 0.321,-0.263 0.31,-0.266L0.31,-0.27L0.529,-0.27L0.529,0.106L0.525,0.106Z" style="fill-rule:nonzero;"/>
        </g>
    </g>
</svg>
